<?xml version="1.0" encoding="UTF-8"?>
<svg id="Camada_1" data-name="Camada 1" xmlns="http://www.w3.org/2000/svg" xmlns:xlink="http://www.w3.org/1999/xlink" viewBox="0 0 1625 277">
  <defs>
    <style>
      .cls-1 {
        fill: none;
      }

      .cls-2 {
        fill: url(#Gradiente_sem_nome);
      }

      .cls-3 {
        fill: #fff;
      }

      .cls-4 {
        clip-path: url(#clippath);
      }
    </style>
    <clipPath id="clippath">
      <rect class="cls-1" y=".02" width="1624.19" height="276.11"/>
    </clipPath>
    <radialGradient id="Gradiente_sem_nome" data-name="Gradiente sem nome" cx="520.86" cy="434.04" fx="520.86" fy="434.04" r="1" gradientTransform="translate(-790.67 -39458.4) rotate(128.89) scale(56.94 -60.14)" gradientUnits="userSpaceOnUse">
      <stop offset="0" stop-color="#fff" stop-opacity=".8"/>
      <stop offset="1" stop-color="#fff"/>
    </radialGradient>
  </defs>
  <g class="cls-4">
    <g>
      <ellipse class="cls-2" cx="881.77" cy="37.71" rx="35.81" ry="34.3"/>
      <path class="cls-3" d="M164.55,89.95h3.73l-3.73-65.67c-20.52-11.19-49.63-16.79-72.39-16.79C41.04,7.49,0,33.61,0,82.86c0,81.34,127.98,77.24,127.98,144.77,0,32.09-22.39,44.78-43.66,44.78-41.42,0-67.91-35.82-80.22-84.33H.37l3.73,69.4c20.52,11.19,52.98,18.66,79.85,18.66,50,0,95.89-25.37,95.89-82.83,0-84.7-127.98-83.58-127.98-147.38,0-24.63,19.03-34.7,40.67-34.7,35.07,0,59.7,38.43,72.01,78.73Z"/>
      <path class="cls-3" d="M328.85,111.96v121.27c-7.46,6.34-18.28,14.93-35.45,14.93-13.43,0-20.15-8.96-20.15-23.51V82.11h-6.72l-77.61,8.96v3.73c19.78,1.87,22.01,3.36,22.01,17.16v108.21c0,41.04,23.51,55.97,51.12,55.97s49.63-16.79,66.79-39.18h1.87l1.49,39.18h3.73l77.24-8.95v-3.73c-19.77-1.87-22.01-3.36-22.01-17.16V82.11h-6.72l-85.07,8.96v3.73c27.24,1.87,29.48,3.36,29.48,17.16Z"/>
      <path class="cls-3" d="M497.25,109.72h-1.87L497.25.02h-3.73l-80.6,8.96v3.73c19.77,1.87,22.01,3.36,22.01,17.16v244.4h3.73l30.22-20.52c19.03,17.54,42.16,22.39,61.19,22.39,52.24,0,93.28-36.94,93.28-97.01,0-55.97-27.98-97.01-75-97.01-22.39,0-39.18,10.82-51.12,27.61ZM519.64,104.5c21.27,0,38.06,23.13,38.06,77.61,0,47.39-8.96,88.8-32.84,88.8-10.07,0-27.61-4.11-27.61-44.03v-113.43c7.09-5.97,14.55-8.96,22.39-8.96Z"/>
      <path class="cls-3" d="M638.62,113.83l69.03,160.44h32.46l58.58-158.21c5.6-14.55,9.7-23.13,27.61-26.49v-3.73h-73.13v3.73c40.3,2.24,45.52,13.06,40.3,27.61l-40.3,108.58h-.75l-42.91-108.58c-5.22-13.06-3.73-25.37,17.91-27.61v-3.73h-110.82v3.73c11.57,1.49,16.79,11.94,22.02,24.25Z"/>
      <path class="cls-3" d="M914.62,254.5V82.11h-3.73l-80.6,8.96v3.73c19.78,1.87,22.01,3.36,22.01,17.16v142.53c0,10.82-2.24,12.31-22.01,14.18v3.73h106.34v-3.73c-19.78-1.87-22.02-3.36-22.02-14.18Z"/>
      <path class="cls-3" d="M1075.31,141.81h3.73l-3.73-48.13c-14.93-7.09-38.81-11.57-56.34-11.57-50,0-72.01,24.63-72.01,54.48,0,67.91,98.13,65.67,98.13,109.7,0,16.42-11.94,26.12-30.97,26.12-28.36,0-52.99-19.4-65.3-59.7h-3.73l4.1,50.37c14.93,7.46,43.66,13.06,63.06,13.06,47.76,0,77.24-23.13,77.24-58.58,0-63.81-95.52-61.57-95.52-108.95,0-14.55,8.58-22.76,24.25-22.76,24.25,0,47.02,29.48,57.09,55.97Z"/>
      <path class="cls-3" d="M1235.07,111.96v121.27c-7.47,6.34-18.29,14.93-35.45,14.93-13.43,0-20.15-8.96-20.15-23.51V82.11h-6.72l-77.61,8.96v3.73c19.78,1.87,22.02,3.36,22.02,17.16v108.21c0,41.04,23.51,55.97,51.12,55.97s49.62-16.79,66.79-39.18h1.86l1.49,39.18h3.74l77.23-8.95v-3.73c-19.77-1.87-22.01-3.36-22.01-17.16V82.11h-6.72l-85.07,8.96v3.73c27.24,1.87,29.48,3.36,29.48,17.16Z"/>
      <path class="cls-3" d="M1489.29,248.9v-109.7c.74-31.71-25.38-57.09-71.64-57.09-53.73,0-83.96,39.92-83.96,61.19,0,14.18,11.57,19.4,23.88,19.4,13.81,0,23.51-7.09,23.51-15.67,0-10.82-22.01-14.55-22.01-29.48s15.67-23.51,31.34-23.51c26.49,0,36.56,20.15,36.56,41.04v37.69c-80.96,4.85-98.87,36.19-98.87,59.33,0,24.63,16.04,44.03,44.4,44.03,22.39,0,41.04-11.19,53.73-29.85h.74v4.48c0,13.81,9.71,25.37,30.97,25.37s40.3-9.7,55.6-22.01l-.37-2.99c-4.85,2.99-10.82,6.34-15.3,6.34-5.6,0-8.58-3.36-8.58-8.58ZM1426.97,176.51v66.04c-4.85,2.99-9.32,5.97-16.04,5.97-11.94,0-19.4-8.58-19.4-30.6,0-27.98,12.68-38.43,35.44-41.42Z"/>
      <path class="cls-3" d="M1602.2,254.5V.02h-3.73l-80.59,8.96v3.73c19.77,1.87,22.01,3.36,22.01,17.16v224.62c0,10.82-2.24,12.31-22.01,14.18v3.73h106.34v-3.73c-19.78-1.87-22.02-3.36-22.02-14.18Z"/>
    </g>
  </g>
</svg>